<svg xmlns="http://www.w3.org/2000/svg" viewBox="0 0 35.541 35.54">
  <defs>
    <style>
      .cls-1 {
        fill: #1b1b1b;
      }
    </style>
  </defs>
  <path id="facebook2" class="cls-1" d="M29.617,0H5.923A5.924,5.924,0,0,0,0,5.924V29.616A5.923,5.923,0,0,0,5.923,35.54H17.77V19.992H13.328V15.549H17.77V12.217a5.554,5.554,0,0,1,5.553-5.553h5.553v4.443H23.323a1.111,1.111,0,0,0-1.111,1.111v3.332h6.109l-1.111,4.443h-5V35.54h7.4a5.924,5.924,0,0,0,5.923-5.924V5.924A5.923,5.923,0,0,0,29.617,0Z" transform="translate(0 0)"/>
</svg>
