<?xml version="1.0" encoding="utf-8"?>
<!-- Generator: Adobe Illustrator 19.0.0, SVG Export Plug-In . SVG Version: 6.00 Build 0)  -->
<svg version="1.1" id="Layer_1" xmlns="http://www.w3.org/2000/svg" xmlns:xlink="http://www.w3.org/1999/xlink" x="0px" y="0px"
	 viewBox="0 0 1036 1566" style="enable-background:new 0 0 1036 1566;" xml:space="preserve">
<style type="text/css">
	.st0{fill-rule:evenodd;clip-rule:evenodd;fill:none;stroke:#49DBFE;stroke-width:6;stroke-miterlimit:10;}
</style>
<path id="XMLID_3_" class="st0" d="M950.1,415.3L582.3,782.9l367.8,367.6c91.8,91.7,91.8,240.4,0,332.1
	c-91.8,91.7-240.5,91.7-332.3,0L83.9,949c-91.8-91.7-91.8-240.4,0-332.1l534-533.7c91.8-91.7,240.5-91.7,332.3,0
	C1041.9,174.8,1041.9,323.6,950.1,415.3z"/>
<path id="XMLID_5_" class="st0" d="M960.1,868l-146.5,146.4l139.9,139.8c55.1,55.1,55.1,144.4,0,199.5
	c-55.1,55.1-144.5,55.1-199.6,0l-233.1-232.9c0,0,0,0,0,0l-13.2-13.2c-51.5-51.4-51.5-134.9,0-186.3l252.9-252.7
	c51.5-51.4,134.9-51.4,186.4,0l13.2,13.2C1011.6,733.2,1011.6,816.6,960.1,868z"/>
<path id="XMLID_7_" class="st0" d="M968.6,1106.8l-30.9,30.9l30.9,30.9c25.5,25.5,25.5,66.9,0,92.4c-25.5,25.5-66.9,25.5-92.4,0
	l-77.2-77.1l-46.2-46.2l123.4-123.3c25.5-25.5,66.9-25.5,92.4,0C994.1,1040,994.1,1081.3,968.6,1106.8z"/>
</svg>
