<svg xmlns="http://www.w3.org/2000/svg" viewBox="0 0 22.472 18.262">
  <defs>
    <style>
      .cls-1 {
        fill: #fff;
      }
    </style>
  </defs>
  <path id="twitter-white" class="cls-1" d="M22.471,5.159a9.227,9.227,0,0,1-2.648.726,4.629,4.629,0,0,0,2.027-2.551,9.235,9.235,0,0,1-2.928,1.119,4.615,4.615,0,0,0-7.856,4.205,13.09,13.09,0,0,1-9.5-4.817A4.616,4.616,0,0,0,2.991,10,4.592,4.592,0,0,1,.9,9.421c0,.019,0,.039,0,.058A4.613,4.613,0,0,0,4.6,14a4.621,4.621,0,0,1-2.082.079,4.615,4.615,0,0,0,4.307,3.2A9.25,9.25,0,0,1,1.1,19.253,9.324,9.324,0,0,1,0,19.188,13.047,13.047,0,0,0,7.066,21.26,13.028,13.028,0,0,0,20.183,8.142q0-.3-.013-.6a9.373,9.373,0,0,0,2.3-2.386Z" transform="translate(0.001 -2.998)"/>
</svg>
