<svg xmlns="http://www.w3.org/2000/svg" viewBox="0 0 35.542 28.882">
  <defs>
    <style>
      .cls-1 {
        fill: #1b1b1b;
      }
    </style>
  </defs>
  <path id="twitter" class="cls-1" d="M35.541,6.417a14.593,14.593,0,0,1-4.188,1.148,7.322,7.322,0,0,0,3.206-4.034A14.606,14.606,0,0,1,29.929,5.3,7.3,7.3,0,0,0,17.5,11.951,20.7,20.7,0,0,1,2.475,4.332a7.3,7.3,0,0,0,2.257,9.736,7.263,7.263,0,0,1-3.3-.912c0,.03,0,.061,0,.092A7.3,7.3,0,0,0,7.276,20.4a7.308,7.308,0,0,1-3.293.124,7.3,7.3,0,0,0,6.812,5.063,14.63,14.63,0,0,1-9.056,3.121A14.746,14.746,0,0,1,0,28.6,20.634,20.634,0,0,0,11.176,31.88c13.412,0,20.746-11.111,20.746-20.747q0-.475-.021-.943a14.824,14.824,0,0,0,3.638-3.774Z" transform="translate(0.001 -2.999)"/>
</svg>
