<svg xmlns="http://www.w3.org/2000/svg" viewBox="0 0 35.542 35.54">
  <defs>
    <style>
      .cls-1 {
        fill: #1b1b1b;
      }
    </style>
  </defs>
  <g id="youtube3" transform="translate(0 0)">
    <path id="Path_1255" data-name="Path 1255" class="cls-1" d="M9.946,0l-2.4,4.763L5.143,0H2.08L6.408,7.542l.026-.014v5.8H8.655v-5.8l.026.014L13.009,0Z" transform="translate(0.231)"/>
    <path id="Path_1256" data-name="Path 1256" class="cls-1" d="M15.332,4.221a1.126,1.126,0,0,1,1.111,1.111V9.774a1.111,1.111,0,0,1-2.221,0V5.332A1.126,1.126,0,0,1,15.332,4.221Zm0-2.221A3.342,3.342,0,0,0,12,5.332V9.774a3.332,3.332,0,0,0,6.664,0V5.332A3.342,3.342,0,0,0,15.332,2Z" transform="translate(1.329 0.221)"/>
    <path id="Path_1257" data-name="Path 1257" class="cls-1" d="M24.443,2v8.745c-.97.809-2.221,1.3-2.221-1.584V2H20V9.612h0c.034,1.836.421,5.142,4.439,2.454v1.04h2.221V2H24.443Z" transform="translate(2.214 0.221)"/>
    <path id="Path_1258" data-name="Path 1258" class="cls-1" d="M27.111,22A1.112,1.112,0,0,0,26,23.111v1.111h2.221V23.111A1.112,1.112,0,0,0,27.111,22Z" transform="translate(2.878 2.434)"/>
    <path id="Path_1259" data-name="Path 1259" class="cls-1" d="M18,23.068V28.9c.752.752,2.221.833,2.221-.278V23.414c0-1.111-1.111-1.458-2.221-.348Z" transform="translate(1.993 2.477)"/>
    <path id="Path_1260" data-name="Path 1260" class="cls-1" d="M35.358,18.635a4.618,4.618,0,0,0-4.541-4.454C28.395,14.06,22.854,14,17.985,14s-10.8.06-13.227.181A4.724,4.724,0,0,0,1.6,15.5,4.721,4.721,0,0,0,.217,18.635C.071,21.241,0,22.186,0,23.49s.072,3.259.218,5.866A4.726,4.726,0,0,0,1.6,32.489,4.721,4.721,0,0,0,4.758,33.81c2.422.121,8.358.181,13.227.181s10.41-.06,12.832-.181a4.618,4.618,0,0,0,4.541-4.454q.182-3.259.182-5.866c0-1.738-.061-2.683-.182-4.856ZM6.664,31.77H4.443V20.664H2.221V18.443H8.885v2.221H6.664Zm8.885,0H13.328v-1.04c-4.223,2.37-4.4.077-4.439-1.76h0V22.885h2.221V29c0,1.342,1.252,1.212,2.221.4V22.885h2.221Zm8.885-2.253c0,2.321-2.378,3-4.443,1.194v1.06H17.77V18.443h2.221v3.61c2.221-2.221,4.443-1.388,4.443.833v6.632Zm8.885-4.41v1.111H28.877v2.221a1.111,1.111,0,0,0,2.221,0V27.328h2.221v1.111a3.332,3.332,0,0,1-6.664,0V24a3.332,3.332,0,0,1,6.664,0Z" transform="translate(0.001 1.549)"/>
  </g>
</svg>
