<svg id="youtube3-white" xmlns="http://www.w3.org/2000/svg" viewBox="0 0 22.472 22.471">
  <defs>
    <style>
      .cls-1 {
        fill: #fff;
      }
    </style>
  </defs>
  <path id="Path_1255" data-name="Path 1255" class="cls-1" d="M7.053,0,5.535,3.012,4.017,0H2.08L4.817,4.769l.016-.009V8.427h1.4V4.76l.016.009L8.99,0Z" transform="translate(-0.619)"/>
  <path id="Path_1256" data-name="Path 1256" class="cls-1" d="M14.107,3.4a.712.712,0,0,1,.7.7V6.916a.7.7,0,0,1-1.4,0V4.107A.712.712,0,0,1,14.107,3.4Zm0-1.4A2.113,2.113,0,0,0,12,4.107V6.916a2.107,2.107,0,0,0,4.213,0V4.107A2.113,2.113,0,0,0,14.107,2Z" transform="translate(-3.572 -0.596)"/>
  <path id="Path_1257" data-name="Path 1257" class="cls-1" d="M22.809,2V7.529c-.613.511-1.4.82-1.4-1V2H20V6.813h0c.022,1.161.266,3.251,2.807,1.552v.657h1.4V2h-1.4Z" transform="translate(-5.955 -0.596)"/>
  <path id="Path_1258" data-name="Path 1258" class="cls-1" d="M26.7,22a.7.7,0,0,0-.7.7v.7h1.4v-.7A.7.7,0,0,0,26.7,22Z" transform="translate(-7.741 -6.551)"/>
  <path id="Path_1259" data-name="Path 1259" class="cls-1" d="M18,22.818V26.5c.475.475,1.4.527,1.4-.176V23.037c0-.7-.7-.922-1.4-.22Z" transform="translate(-5.359 -6.666)"/>
  <path id="Path_1260" data-name="Path 1260" class="cls-1" d="M22.356,16.93a2.92,2.92,0,0,0-2.871-2.816C17.953,14.038,14.45,14,11.371,14s-6.831.038-8.363.114a2.987,2.987,0,0,0-2,.836,2.985,2.985,0,0,0-.873,1.98C.045,18.579,0,19.176,0,20s.046,2.06.138,3.709a2.988,2.988,0,0,0,.873,1.98,2.985,2.985,0,0,0,2,.836c1.532.077,5.284.114,8.363.114s6.582-.038,8.114-.114a2.92,2.92,0,0,0,2.871-2.816q.115-2.06.115-3.709c0-1.1-.039-1.7-.115-3.07ZM4.213,25.236h-1.4V18.213H1.4v-1.4H5.618v1.4h-1.4Zm5.618,0h-1.4v-.657c-2.67,1.5-2.785.048-2.807-1.113h0V19.618h1.4v3.869c0,.848.791.766,1.4.256V19.618h1.4Zm5.618-1.425c0,1.468-1.5,1.9-2.809.755v.67h-1.4V16.809h1.4v2.282c1.4-1.4,2.809-.878,2.809.527v4.193Zm5.618-2.789v.7H18.258v1.4a.7.7,0,0,0,1.4,0v-.7h1.4v.7a2.107,2.107,0,0,1-4.213,0V20.32a2.107,2.107,0,0,1,4.213,0Z" transform="translate(0.001 -4.169)"/>
</svg>
